:FULLY-SPECIFIED
:DEGREES
2607
root 1.2578 15.6078 -2.02616 4893.04 -81.9465 -4890.4
lowerback 4.23092 1.91384 -8.67766
upperback -1.98878 1.98193 -0.427755
thorax -4.75099 1.23047 4.2508
lowerneck -16.6256 0.31998 1.87632
upperneck 21.0359 0.282747 -2.18939
head 9.38478 -0.0368868 -1.04424
rclavicle 1.15295e-014 8.49804e-015
rhumerus -21.3607 3.65194 -92.6165
rradius 36.2162
rwrist -6.28809
rhand -30.4033 -16.6726
rfingers 7.12502
rthumb -3.70696 -46.6201
lclavicle 1.15295e-014 8.49804e-015
lhumerus -28.082 -12.9119 97.5615
lradius 29.3498
lwrist 7.824
lhand -31.8601 15.5684
lfingers 7.12502
lthumb -5.11362 45.4867
rfemur -31.5267 1.37651 17.2655
rtibia 43.5488
rfoot -16.8815 -21.239
rtoes -12.0459
lfemur -1.70098 -5.15857 -32.5651
ltibia 17.348
lfoot -14.7275 7.92326
ltoes -6.06838
2608
root 1.27383 15.6059 -2.03089 4894.18 -81.9854 -4891.34
lowerback 4.0953 1.89281 -8.80724
upperback -2.01792 1.95564 -0.461934
thorax -4.70527 1.21935 4.29304
lowerneck -16.6619 0.281458 1.85501
upperneck 20.977 0.227887 -2.15386
head 9.36959 -0.0591358 -1.03488
rclavicle -1.98785e-016 2.48481e-015
rhumerus -20.8831 3.8071 -92.6109
rradius 37.1212
rwrist -6.07447
rhand -30.2335 -16.9308
rfingers 7.12502
rthumb -3.54298 -46.8811
lclavicle -1.98785e-016 2.48481e-015
lhumerus -28.6211 -13.07 97.7681
lradius 29.2266
lwrist 7.76373
lhand -31.9306 15.5918
lfingers 7.12502
lthumb -5.18171 45.5085
rfemur -31.7689 1.88249 17.1261
rtibia 41.2639
rfoot -16.5762 -20.6929
rtoes -12.6144
lfemur -0.722729 -5.24152 -32.753
ltibia 16.2178
lfoot -14.6643 8.00204
ltoes -6.36241
2609
root 1.28925 15.6095 -2.03581 4895.53 -82.0019 -4892.48
lowerback 3.96928 1.87377 -8.95961
upperback -2.06509 1.92799 -0.509346
thorax -4.68439 1.2093 4.33353
lowerneck -16.6453 0.251649 1.87646
upperneck 20.9015 0.182184 -2.15384
head 9.33915 -0.0777124 -1.04347
rclavicle -1.96797e-014 -1.78906e-015
rhumerus -20.5209 4.14749 -92.6778
rradius 38.2273
rwrist -6.71335
rhand -30.3373 -16.8803
rfingers 7.12502
rthumb -3.64318 -46.8289
lclavicle -1.96797e-014 -1.78906e-015
lhumerus -29.1732 -13.0881 97.9142
lradius 29.0758
lwrist 7.71516
lhand -31.8228 15.5881
lfingers 7.12502
lthumb -5.07762 45.5072
rfemur -31.9549 2.51492 16.8823
rtibia 38.9477
rfoot -16.3664 -20.0577
rtoes -13.3902
lfemur 0.310353 -5.10251 -32.9299
ltibia 14.925
lfoot -14.481 7.69621
ltoes -6.68431
2610
root 1.30461 15.6113 -2.04223 4896.8 -82.0701 -4893.54
lowerback 3.82894 1.82691 -9.06721
upperback -2.08494 1.87018 -0.547323
thorax -4.62034 1.18072 4.36243
lowerneck -16.6844 0.22939 1.91518
upperneck 20.8098 0.147305 -2.17288
head 9.3136 -0.0916845 -1.06007
rclavicle -1.39149e-015 2.5842e-015
rhumerus -20.097 4.39895 -92.7285
rradius 39.2479
rwrist -7.06855
rhand -30.4445 -16.9151
rfingers 7.12502
rthumb -3.74672 -46.8619
lclavicle -1.39149e-015 2.5842e-015
lhumerus -29.6917 -13.066 98.0308
lradius 28.8932
lwrist 7.5572
lhand -31.774 15.6851
lfingers 7.12502
lthumb -5.0305 45.6054
rfemur -32.1173 3.21086 16.6611
rtibia 36.6538
rfoot -15.9656 -19.6521
rtoes -14.8535
lfemur 1.40696 -5.00377 -33.0573
ltibia 13.4921
lfoot -14.1136 7.47228
ltoes -6.82635
2611
root 1.31777 15.6161 -2.04851 4897.81 -82.1887 -4894.28
lowerback 3.65124 1.78003 -9.09243
upperback -2.14562 1.82059 -0.559358
thorax -4.57675 1.15651 4.37183
lowerneck -16.6782 0.196767 1.90583
upperneck 20.7464 0.10638 -2.1754
head 9.28942 -0.110988 -1.0639
rclavicle 3.57812e-015 -2.68856e-014
rhumerus -19.8078 4.74217 -92.7402
rradius 40.2535
rwrist -7.49117
rhand -30.4792 -16.7728
rfingers 7.12502
rthumb -3.78018 -46.719
lclavicle 3.57812e-015 -2.68856e-014
lhumerus -30.1983 -12.9298 98.1218
lradius 28.5467
lwrist 7.34546
lhand -31.6755 15.6069
lfingers 7.12502
lthumb -4.93542 45.5294
rfemur -32.2977 4.05817 16.4051
rtibia 34.3981
rfoot -16.1412 -19.2217
rtoes -14.3056
lfemur 2.5621 -5.0008 -33.1117
ltibia 11.9072
lfoot -13.7296 7.36018
ltoes -7.02111
2612
root 1.32884 15.6161 -2.05627 4898.77 -82.1654 -4894.96
lowerback 3.43024 1.76273 -9.17951
upperback -2.20595 1.80916 -0.610801
thorax -4.51495 1.15107 4.37209
lowerneck -16.6777 0.18654 1.9314
upperneck 20.6816 0.0910435 -2.194
head 9.26643 -0.117367 -1.07582
rclavicle -1.88845e-014 2.46493e-014
rhumerus -19.3549 4.20628 -92.5596
rradius 40.9398
rwrist -4.70226
rhand -29.1083 -17.6425
rfingers 7.12502
rthumb -2.45631 -47.6081
lclavicle -1.88845e-014 2.46493e-014
lhumerus -30.7501 -12.8654 98.2116
lradius 28.1969
lwrist 7.33522
lhand -31.6921 15.5228
lfingers 7.12502
lthumb -4.95143 45.4449
rfemur -32.4987 4.99118 16.0665
rtibia 32.2148
rfoot -15.8848 -19.0398
rtoes -15.1914
lfemur 3.76423 -4.7755 -33.2398
ltibia 10.1909
lfoot -13.2477 7.11917
ltoes -7.15641
2613
root 1.34125 15.6186 -2.06652 4900.04 -82.1862 -4895.93
lowerback 3.22711 1.70467 -9.34696
upperback -2.27007 1.74013 -0.609973
thorax -4.46394 1.12124 4.47625
lowerneck -16.7282 0.189254 1.9188
upperneck 20.6801 0.104908 -2.22204
head 9.27551 -0.114913 -1.08174
rclavicle -3.91606e-014 1.49585e-014
rhumerus -19.0487 4.48848 -92.5558
rradius 41.9102
rwrist -4.85747
rhand -29.1395 -18.0975
rfingers 7.12502
rthumb -2.4864 -48.0627
lclavicle -3.91606e-014 1.49585e-014
lhumerus -31.2554 -12.619 98.2806
lradius 27.7544
lwrist 7.08659
lhand -31.5764 15.5963
lfingers 7.12502
lthumb -4.83972 45.521
rfemur -32.7319 6.11157 15.63
rtibia 30.1732
rfoot -15.777 -19.1967
rtoes -15.5655
lfemur 5.12774 -4.48768 -33.3418
ltibia 8.15453
lfoot -12.6151 6.75909
ltoes -7.63279
2614
root 1.35 15.6193 -2.0757 4901.24 -82.2415 -4896.83
lowerback 2.99522 1.65692 -9.38601
upperback -2.34627 1.69229 -0.649742
thorax -4.40567 1.09718 4.46454
lowerneck -16.7121 0.171807 1.95168
upperneck 20.6134 0.0821544 -2.26075
head 9.2488 -0.126499 -1.10268
rclavicle 1.0138e-014 3.05134e-014
rhumerus -18.75 4.82265 -92.6204
rradius 42.8159
rwrist -5.66323
rhand -29.5584 -17.8844
rfingers 7.12502
rthumb -2.89097 -47.8445
lclavicle 1.0138e-014 3.05134e-014
lhumerus -31.7874 -12.4607 98.323
lradius 27.2742
lwrist 6.93341
lhand -31.4013 15.5595
lfingers 7.12502
lthumb -4.67062 45.488
rfemur -33.0063 7.37189 15.1356
rtibia 28.3348
rfoot -15.9041 -19.5985
rtoes -15.8636
lfemur 6.7975 -4.21973 -33.4103
ltibia 5.55104
lfoot -11.6222 6.32332
ltoes -8.3941
2615
root 1.35556 15.6219 -2.08532 4902.41 -82.2836 -4897.73
lowerback 2.72055 1.60502 -9.43398
upperback -2.38128 1.6467 -0.681429
thorax -4.28039 1.07058 4.46765
lowerneck -16.7186 0.161206 1.945
upperneck 20.5433 0.0727473 -2.26975
head 9.22543 -0.131535 -1.1051
rclavicle -3.16068e-014 1.1281e-014
rhumerus -18.619 5.6057 -92.8353
rradius 44.0017
rwrist -8.72383
rhand -31.2611 -16.9919
rfingers 7.12502
rthumb -4.53528 -46.9234
lclavicle -3.16068e-014 1.1281e-014
lhumerus -32.271 -12.2199 98.3045
lradius 26.6763
lwrist 6.34909
lhand -31.2829 15.7329
lfingers 7.12502
lthumb -4.55628 45.6639
rfemur -33.3151 8.59969 14.6315
rtibia 26.7372
rfoot -16.26 -20.3326
rtoes -16.1863
lfemur 10.1378 -3.93896 -33.443
ltibia 5.40694e-014
lfoot -9.30762 5.78731
ltoes -8.78113
